# xmcd
#
# Track frame offsets:
#	150
#	13353
#	27231
#	43811
#	66241
#	84465
#	105500
#	117407
#	130911
#	146069
#	160459
#	177337
#	196325
#	210930
#	225147
#	239407
#	256022
#	268476
#
# Disc length: 3827 seconds
#
# Revision: 1
# Processed by: cddbd v1.5.2PL0 Copyright (c) Steve Scherf et al.
# Submitted via: audiograbber 1.83.01
#
DISCID=000ef112
DTITLE=Various Artists - Promo Only Country Radio 2010 - 03
DYEAR=2010
DGENRE=Country
TTITLE0=Luke Bryan - Rain Is A Good Thing
TTITLE1=Jack Ingram - Free
TTITLE2=Martina McBride - Wrong Baby Wrong
TTITLE3=David Nail - Turning Home
TTITLE4=Craig Morgan - This Ain't Nothin'
TTITLE5=Jo Dee Messina - That's God
TTITLE6=Matt Stillwell - Dirt Road Dancing
TTITLE7=Jewel - Stay Here Forever
TTITLE8=Sammy Kershaw - Better Than I Used To Be
TTITLE9=Reba McEntire - I Keep On Lovin' You
TTITLE10=Lynyrd Skynyrd - That Ain't My America
TTITLE11=The Harters - Jenny
TTITLE12=Mary Raybon - Daddy Phone
TTITLE13=Margarete Durante - Use Somebody
TTITLE14=Katie Arminger - Kiss Me Now
TTITLE15=Suzie Ragsdale ft. Rodney Crowell - Troublemaker
TTITLE16=Kate Russelle - Kick Down The Door
TTITLE17=Miranda Lambert - White Liar (Acoustic Version)
EXTD=
EXTT0=
EXTT1=
EXTT2=
EXTT3=
EXTT4=
EXTT5=
EXTT6=
EXTT7=
EXTT8=
EXTT9=
EXTT10=
EXTT11=
EXTT12=
EXTT13=
EXTT14=
EXTT15=
EXTT16=
EXTT17=
PLAYORDER=
